<svg xmlns="http://www.w3.org/2000/svg" width="28" height="28"><title>icn-twitter</title><desc>Created with Sketch.</desc><g fill="none"><g fill="#fff"><g><g><path d="M21.05 11.18c0 .15 0 .3 0 .45 0 4.67-3.54 10.04-10.03 10.04-2 0-3.84-.58-5.4-1.58.27.02.55.04.84.04 1.65 0 3.17-.57 4.38-1.5-1.54-.04-2.85-1.06-3.3-2.46.22.04.44.06.67.06.33 0 .64-.04.94-.12-1.62-.33-2.83-1.76-2.83-3.46 0-.02 0-.03 0-.05.48.28 1.03.43 1.6.45-.94-.63-1.56-1.7-1.56-2.93 0-.65.17-1.26.47-1.78 1.75 2.14 4.35 3.54 7.3 3.7-.07-.27-.1-.54-.1-.82 0-1.94 1.57-3.52 3.52-3.52 1.02 0 1.93.42 2.58 1.1.8-.15 1.56-.44 2.24-.85-.27.83-.82 1.52-1.55 1.96.7-.08 1.38-.27 2-.55-.46.7-1.06 1.33-1.75 1.83M14 0C6.27 0 0 6.27 0 14s6.27 14 14 14 14-6.27 14-14S21.73 0 14 0"/></g></g></g></g></svg>