<svg xmlns="http://www.w3.org/2000/svg" width="70" height="67"><title>leaf</title><desc>Created with Sketch.</desc><g fill="none"><g fill="#CECED2"><g><g><g><path d="M27.8 65.86l-.33.05-.58.1C16.26 67.47 6.43 63.15 2.84 54.3c-.8-1.95-1.35-4.14-1.7-6.53-.57-3.9-.57-8.02-.23-11.88.1-1 .18-1.72.24-2.14l.47-3.2 3.18.56c.8.14 2.12.43 3.8.9 2.75.8 5.52 1.85 8.13 3.18 2.65 1.35 4.98 2.92 6.9 4.75.13-1.12.3-2.22.5-3.32.8-4.14 2.22-7.96 4.37-11.4 3.4-5.4 8.43-10.14 14.66-14.3 4.08-2.7 8.43-5.02 12.78-6.92 1.52-.66 2.94-1.23 4.22-1.7.77-.3 1.34-.5 1.66-.6l3.07-1 .9 3.1c.12.4.32 1.12.57 2.1.4 1.64.8 3.46 1.2 5.44 1.24 6.42 1.9 12.9 1.7 19-.1 3.6-.53 6.96-1.3 10.04C64 56.14 48.28 65.86 29.63 65.86H27.8zm-4.08-5.88c.32-2.9.22-5.96-.5-8.77-.56-2.1-1.44-3.93-2.7-5.4-1.6-1.9-3.86-3.58-6.64-5-2.14-1.1-4.45-1.97-6.77-2.65l-.04.04c-.17 2.88-.1 5.87.3 8.66.3 1.92.73 3.63 1.32 5.1 2.15 5.3 8.03 8.3 15.04 8.02zm36.9-51.12c-.7.28-1.4.58-2.16.9-4.04 1.77-8.07 3.9-11.82 6.4-5.54 3.7-9.95 7.86-12.8 12.42-1.73 2.74-2.88 5.83-3.53 9.23-1.14 6-.66 12.56.85 18.9.04.17.08.34.12.5.93-2.6 2.08-5.5 3.47-8.64 4.08-9.18 9.42-18.6 16.16-27.7.77-1.05 2.25-1.27 3.3-.5 1.04.78 1.26 2.25.5 3.3C48.15 32.48 43 41.6 39.04 50.48c-1.38 3.1-2.5 5.95-3.4 8.48-.02.08-.05.16-.08.24 13.22-1.74 23.52-9.3 26.3-20.35.65-2.6 1.02-5.54 1.13-8.72.18-5.57-.45-11.6-1.6-17.6-.26-1.3-.52-2.53-.8-3.67h.02z"/></g></g></g></g></g></svg>