<svg xmlns="http://www.w3.org/2000/svg" width="9" height="14"><title>arrow-icn</title><desc>Created with Sketch.</desc><g fill="none"><g fill="#fff"><g><g><g><path d="M.7.35c.52-.5 1.37-.5 1.9 0 .5.53.5 1.37 0 1.9-.53.5-1.38.5-1.9 0C.2 1.7.2.87.7.34z"/><path d="M3.56 3.2c.52-.5 1.36-.5 1.88 0 .52.53.52 1.37 0 1.9-.52.5-1.36.5-1.88 0-.53-.53-.53-1.37 0-1.9z"/><path d="M6.4 6.06c.53-.52 1.37-.52 1.9 0 .5.52.5 1.36 0 1.88-.53.52-1.37.52-1.9 0-.5-.52-.5-1.36 0-1.88z"/><path d="M.7 6.06c.52-.52 1.37-.52 1.9 0 .5.52.5 1.36 0 1.88-.53.52-1.38.52-1.9 0S.2 6.58.7 6.06z"/><path d="M3.56 8.9c.52-.5 1.36-.5 1.88 0 .52.53.52 1.38 0 1.9s-1.36.52-1.88 0c-.53-.52-.53-1.37 0-1.9z"/><path d="M2.6 11.76c.5.52.5 1.37 0 1.9-.53.5-1.38.5-1.9 0-.52-.53-.52-1.38 0-1.9s1.37-.52 1.9 0z"/></g></g></g></g></g></svg>