<svg xmlns="http://www.w3.org/2000/svg" width="61" height="56"><title>heart</title><desc>Created with Sketch.</desc><g fill="none"><g fill="#CECED2"><g><g><g><path d="M30.5 4.96C33.8 1.86 38.12.1 42.8.1c10.04 0 18.17 8.25 18.17 18.4 0 4.5-1.6 8.76-4.5 12.1l-.1.12c-.1.08-.1.08-.43.44-.47.47-.47.47-1.12 1.13-1.16 1.17-2.3 2.35-3.4 3.46-1.4 1.4-2.55 2.6-3.4 3.45-2.62 2.66-2.62 2.66-5.63 5.7-3.38 3.44-3.38 3.44-6.2 6.3-2.25 2.27-2.25 2.27-2.82 2.84-1.7 1.74-4.5 1.7-6.18-.04L4.47 30.56l-.14-.15C1.55 27.1 0 22.93 0 18.5 0 8.35 8.13.1 18.18.1c4.66 0 9 1.77 12.3 4.86 0 0 .04.02 0 0zm21.65 21.77c1.93-2.27 3-5.16 3-8.23 0-6.96-5.54-12.6-12.36-12.6-3.98 0-7.64 1.93-9.97 5.13l-2.34 3.23-2.36-3.23c-2.33-3.2-6-5.12-9.96-5.12-6.82 0-12.37 5.64-12.37 12.6 0 3 1.05 5.84 2.9 8.1l21.62 22.28 1.75-1.77c2.8-2.84 2.8-2.84 6.2-6.27 3-3.05 3-3.05 5.6-5.7.86-.86 2.02-2.03 3.4-3.44 0-.02 0-.02 0-.02 1.1-1.1 2.25-2.28 3.4-3.45.66-.67.66-.67 1.12-1.14l.35-.37zm0 0c-.02.02-.04.04-.06.06l.1-.14-.05.07zM8.7 26.6l-.06-.08.13.15c-.02-.03-.04-.05-.06-.08z"/></g></g></g></g></g></svg>